<?xml version="1.0" encoding="utf-8"?>
<!-- Generator: Adobe Illustrator 18.1.1, SVG Export Plug-In . SVG Version: 6.00 Build 0)  -->
<svg version="1.1" id="Слой_1" xmlns="http://www.w3.org/2000/svg" xmlns:xlink="http://www.w3.org/1999/xlink" x="0px" y="0px"
	 viewBox="0 0 122 122" enable-background="new 0 0 122 122" xml:space="preserve">
<circle fill="#600000" cx="60.8" cy="60.8" r="60"/>
<g>
	<path fill="#F4EAD1" d="M24.7,76.8h-1.5v-1.3c0-0.5-0.1-0.8-0.3-1c-0.2-0.2-0.5-0.3-1-0.3h-6.6v-5h1.3v-8.4h-1.3v-4.7h4v4.7h-1.1
		v8.4h3.2v-8.4h-1.1v-4.7h4v4.7h-1.3v8.4h1.5L24.7,76.8L24.7,76.8z"/>
	<path fill="#F4EAD1" d="M33.8,74.3h-3.1v-4.1h0.9v-4.3l-3.8,3.4v0.8h0.9v4.1h-3.2v-4.1h0.8v-6.5h-0.8V60h3.2v3.7h-0.9V68l3.8-3.4
		v-0.8h-0.9V60h3.1v3.7H33v6.5h0.8V74.3z"/>
	<path fill="#F4EAD1" d="M41.9,70.2c0,2.7-0.9,4.1-2.5,4.1c-1.1,0-1.8-0.4-2.3-1.3H37v2.6h1.1v3.2h-3.3v-3.2h0.8V63.7h-0.8V60h2
		l0.2,1.3h0.1c0.4-0.9,1.2-1.4,2.3-1.4c1.1,0,1.9,0.4,2.2,1.1c0.2,0.5,0.4,1.3,0.4,2.6L41.9,70.2L41.9,70.2z M40.5,69.1v-4.2
		c0-0.8-0.3-1.1-0.9-1.1h-1.5c-0.7,0-1.1,0.4-1.1,1.1v4.2c0,0.8,0.4,1.1,1.1,1.1h1.5C40.2,70.2,40.5,69.8,40.5,69.1z"/>
	<path fill="#F4EAD1" d="M53.4,70.6c0,1.2-0.2,2.1-0.6,2.7c-0.5,0.8-1.3,1.1-2.5,1.1c-1.2,0-2-0.4-2.5-1.1c-0.4-0.6-0.6-1.5-0.6-2.7
		v-3.2h-1.7v2.8h0.8v4.1h-3.1v-4.1h0.8v-6.5h-0.8V60h3.1v3.7h-0.8v2.5h1.7v-2.5c0-1.3,0.2-2.2,0.6-2.8c0.5-0.7,1.3-1.1,2.5-1.1
		c1.2,0,2,0.4,2.5,1.1c0.4,0.6,0.5,1.5,0.5,2.8V70.6z M52,69.1v-4.3c0-0.7-0.3-1.1-0.8-1.1h-1.7c-0.6,0-0.9,0.4-0.9,1.1v4.3
		c0,0.7,0.3,1.1,0.9,1.1h1.7C51.8,70.2,52,69.8,52,69.1z"/>
	<path fill="#F4EAD1" d="M62.5,74.3h-3.1v-4.1h0.9v-6.5h-2.2c-0.3,0-0.5,0.2-0.6,0.6c-0.2,0.4-0.2,1-0.2,1.9v4.5
		c0,1.5-0.1,2.4-0.3,2.9s-0.7,0.7-1.4,0.7h-0.9v-4.1c0.5,0,0.8,0,0.9-0.1c0.2-0.1,0.3-0.4,0.3-0.8v-3.6c0-0.9,0.2-1.5,0.5-1.8v-0.1
		H55V60h7.6v3.7h-0.8v6.5h0.8L62.5,74.3L62.5,74.3z"/>
	<path fill="#F4EAD1" d="M70.2,70.2c0,1.4-0.1,2.4-0.4,2.9c-0.4,0.8-1.2,1.2-2.4,1.2h-3.9v-4.1h0.8v-6.5h-0.8V60h3.4v3.7h-1.1v2.5
		h1.8c0.9,0,1.6,0.2,2.1,0.7c0.4,0.5,0.7,1.1,0.7,1.8V70.2z M68.8,68.8c0-1-0.5-1.5-1.4-1.5h-1.7v2.8h1.8
		C68.4,70.2,68.8,69.8,68.8,68.8z"/>
	<path fill="#F4EAD1" d="M79,74.3h-3.1v-4.1h0.9v-2.8h-3.4v2.8h0.9v4.1h-3.2v-4.1H72v-6.5h-0.8V60h3.2v3.7h-0.9v2.5h3.4v-2.5h-0.9
		V60H79v3.7h-0.8v6.5H79L79,74.3L79,74.3z"/>
	<path fill="#F4EAD1" d="M88.3,74.3h-3.1v-4.1H86v-4.3l-3.8,3.4v0.8h0.9v4.1H80v-4.1h0.8v-6.5H80V60h3.2v3.7h-0.9V68l3.8-3.4v-0.8
		h-0.9V60h3.1v3.7h-0.8v6.5h0.8V74.3z"/>
	<path fill="#F4EAD1" d="M97.1,74.3h-3.3v-4.1h1.1v-1.2c0-0.4-0.1-0.8-0.4-1.1c-0.3-0.3-0.6-0.4-1.1-0.4h-1.9v2.8h0.8v4.1h-3.1v-4.1
		H90v-6.5h-0.8V60h3.1v3.7h-0.8v2.6h0.1l2.7-2.5v-0.1h-0.7V60h3.1v3.7h-0.8l-2.7,2.5v0.1h0.3c0.8,0,1.4,0.2,2,0.7
		c0.5,0.5,0.8,1.1,0.8,1.9v1.3h0.9L97.1,74.3L97.1,74.3z"/>
	<path fill="#F4EAD1" d="M107.3,70.4c0,1.3-0.3,2.3-0.8,2.9c-0.5,0.7-1.5,1-2.8,1h-4.5v-5h1.8v-8.4h-0.5c-0.5,0-0.8,0.1-1,0.3
		c-0.2,0.2-0.3,0.5-0.3,1v1.3h-1.6v-7.3h7.2v4.7h-2.1v3.4c1,0,1.7,0,1.9,0.1c0.8,0.1,1.4,0.3,1.8,0.7c0.6,0.5,0.9,1.2,0.9,2.2
		C107.3,67.2,107.3,70.4,107.3,70.4z M105.6,67.6c0-1.3-0.6-2-1.8-2h-1v3.7h1c0.6,0,1.1-0.1,1.4-0.4
		C105.5,68.7,105.6,68.2,105.6,67.6z"/>
</g>
<path fill="#F4EAD1" d="M80,51.2c-0.3-2.6-3.8-2.8-4.3-1.8c1.2-0.4,3,0.8,2.6,2.1c-0.4,1.5-2.2,1.9-4.3,0.6
	c-2.5-1.5-2.8-3.8-5.7-5.3c-2.9-1.6-5.2-0.6-5.2-0.6c-1.1,0.4-1.5,0.9-1.8,0.9c-0.4-0.1-0.8-0.6-1.8-0.9c0,0-2.3-0.9-5.2,0.6
	c-2.9,1.6-3.2,3.9-5.7,5.3c-2.2,1.3-3.9,0.8-4.3-0.6c-0.4-1.3,1.4-2.5,2.6-2.1c-0.5-1.1-4-0.9-4.3,1.8c-0.3,3.4,3.4,6.9,12.2,3.2
	c2.1-0.9,3.4-1.5,5.4-3.2c0.2-0.2,0.5-0.4,0.9-0.4c0.1,0,0.1,0,0.1,0c0.1,0,0.1,0,0.1,0c0.4,0,0.7,0.2,0.9,0.4
	c2,1.6,3.4,2.3,5.4,3.2C76.6,58.1,80.4,54.6,80,51.2z"/>
<path fill="#F4EAD1" d="M73.7,32.4c-1.5-0.9-2.6-0.8-2.6-0.8s-1,2.5-1.9,1.9c-1.4-0.9,1-1.3,1-2.3c0-0.9-0.5-11.3,1.6-15.4
	c-0.3-0.8-4.9-2.1-11.2-2.1c0,0-8.2,0.1-9.4,1.7c0,0.7,1.9,2.2,1.2,16.2c0.2,0.8,1,1.7,1.3,1.4c0.2-0.3,0.2-13.6,0.1-13.7
	s0.1-0.6,0.3-0.4c0.2,0.2,0.2,8.3,0.2,8.5c0.1,0.2,0.4,0.4,0.4,0c0.1-0.4-0.1-7.9,0-8c0.1-0.2,0.4-0.5,0.7,0.2
	c0.3,0.7-0.1,9.9-0.1,9.9s0.4,0.4,0.5-0.1c0-0.4,0.2-4,0.2-4.3c0-0.3,0.5-0.2,0.5,0.3c0.1,0.5-0.1,8.7-0.1,8.7s3.3,0.5,5.8,0.2
	c2.4-0.4,3.3-0.4,3.4-0.2c0.2,0.4,0.4,1-1.6,1.4c-3.6,0.8-8.5,0.3-11.1-1.4c-1.5-1.1-1.6-2.2-1.7-2.5c-0.1-0.3-4,0.6-3.8,2.9
	c0.2,2.3,7.2,8.7,13.7,8.8c7.8,0,12.6-4.9,13.4-7.6C75.1,34.4,75.7,33.9,73.7,32.4z M61.7,41.9c-8.9-0.4-12.3-7.6-12.2-8.6
	c0-1,0.6-0.7,0.6-0.7c1.8,5.7,7.8,7.9,11.2,8.1c9,0,11.2-6,11.6-6.8c0.4-0.8,0.6-0.8,0.8-0.3C73.8,34,70.6,42.3,61.7,41.9z"/>
<rect x="90.3" y="87.1" fill="#F4EAD1" width="21.6" height="1.1"/>
<rect x="10.8" y="87.1" fill="#F4EAD1" width="21.6" height="1.1"/>
<g>
	<g>
		<path fill="#F4EAD1" d="M39.5,89.8c-0.2,0.4-0.5,0.8-1.1,1c-0.5,0.2-1.1,0.2-1.6-0.1c-0.9-0.4-1.9-0.9-2.8-1.3
			c0.4-0.8,0.8-1.5,1.2-2.3c0.3,0.1,0.4,0.2,0.7,0.3c0.6-1.3,1.3-2.6,1.9-3.9c-0.3-0.1-0.4-0.2-0.6-0.3c0.4-0.7,0.8-1.5,1.1-2.2
			c0.8,0.4,1.5,0.7,2.3,1.1c0.9,0.4,1.5,1.2,1,2.2c-0.3,0.6-0.4,1-0.6,1.6c-0.1,0.3-0.3,0.5-0.4,0.6c-0.2,0.1-0.4,0.2-0.8,0.2
			c0,0,0,0,0,0.1c0.4,0.3,0.5,0.6,0.6,0.9c0,0.2-0.1,0.5-0.2,1C39.8,88.9,39.7,89.2,39.5,89.8z M39.9,85.6c0.1-0.2,0.2-0.4,0.3-0.6
			c0.1-0.3,0-0.5-0.3-0.7c-0.5-0.2-0.7-0.3-1.1-0.5c-0.3,0.6-0.5,1-0.8,1.6c0.4,0.2,0.7,0.3,1.1,0.5C39.5,86.1,39.7,86,39.9,85.6z
			 M39,88.1c0.1-0.2,0.2-0.4,0.3-0.6c0.1-0.2,0.1-0.4,0-0.5c-0.1-0.2-0.2-0.3-0.4-0.4c-0.5-0.2-0.7-0.3-1.2-0.5
			c-0.3,0.7-0.5,1-0.8,1.7c0.5,0.2,0.8,0.4,1.3,0.6C38.6,88.6,38.9,88.5,39,88.1z"/>
		<path fill="#F4EAD1" d="M45,93.6c-0.8-0.2-1.7-0.5-2.5-0.8c0.3-0.8,0.5-1.6,0.8-2.5c0.3,0.1,0.4,0.1,0.7,0.2
			c0-0.6,0.1-0.9,0.1-1.5c-0.6-0.2-1-0.3-1.6-0.5c-0.3,0.5-0.5,0.7-0.9,1.2c0.3,0.1,0.4,0.2,0.7,0.3c-0.3,0.8-0.6,1.6-0.9,2.4
			c-0.8-0.3-1.6-0.6-2.4-0.9c0.3-0.8,0.6-1.6,1-2.4c0.3,0.1,0.4,0.2,0.7,0.3c0.9-1.2,1.8-2.5,2.6-3.7c-0.2-0.1-0.3-0.1-0.5-0.2
			c0.3-0.8,0.6-1.5,0.9-2.3c0.9,0.3,1.9,0.7,2.8,1c-0.2,0.8-0.5,1.6-0.7,2.3c-0.2-0.1-0.3-0.1-0.5-0.2c-0.1,1.5-0.2,3-0.2,4.5
			c0.3,0.1,0.4,0.1,0.7,0.2C45.5,92,45.3,92.8,45,93.6z M44.3,88.5c0.1-0.8,0.1-1.6,0.2-2.4c-0.1,0-0.1-0.1-0.2-0.1
			c-0.4,0.7-0.9,1.3-1.3,2C43.5,88.2,43.7,88.3,44.3,88.5z"/>
		<path fill="#F4EAD1" d="M51,95c-0.4-0.1-0.7-0.1-1.1-0.2c-0.7-0.1-1-0.6-0.8-1.3c0.2-0.8,0.3-1.5,0.5-2.3c0.2-0.6-0.1-1.1-0.9-1.2
			c-0.2-0.1-0.3-0.1-0.4-0.1c-0.2,0.8-0.3,1.1-0.5,1.9c0.3,0.1,0.4,0.1,0.8,0.2c-0.2,0.8-0.4,1.7-0.6,2.5c-0.9-0.2-1.7-0.4-2.6-0.7
			c0.2-0.8,0.5-1.7,0.7-2.5c0.3,0.1,0.4,0.1,0.8,0.2c0.4-1.4,0.8-2.8,1.1-4.3c-0.3-0.1-0.4-0.1-0.7-0.2c0.2-0.8,0.4-1.6,0.7-2.4
			c0.7,0.2,1.5,0.4,2.2,0.6c1.2,0.2,1.7,1.2,1.5,2.4c-0.1,0.4-0.1,0.6-0.2,1c-0.1,0.4-0.2,0.7-0.4,0.9c-0.2,0.2-0.5,0.4-0.9,0.5
			c0,0,0,0,0,0.1c0.4,0.3,0.6,0.6,0.5,1.1c0,0.1,0,0.1-0.1,0.2c0,0.1,0,0.2,0,0.2c-0.1,0.2,0,0.4,0,0.5c0.1,0.1,0.2,0.2,0.3,0.2
			c0.2,0.1,0.4,0.1,0.6,0.1C51.3,93.3,51.1,94.1,51,95z M50.4,88.7c0.1-0.3,0.1-0.6-0.1-0.8c-0.1-0.2-0.4-0.3-0.7-0.4
			c-0.3-0.1-0.4-0.1-0.7-0.2c-0.2,0.7-0.3,1-0.4,1.7c0.3,0.1,0.4,0.1,0.7,0.2C49.8,89.5,50.3,89.3,50.4,88.7z"/>
		<path fill="#F4EAD1" d="M56.7,93.9c-0.1,0.5-0.3,0.9-0.7,1.2c-0.4,0.3-1,0.5-1.5,0.4c-1-0.1-2-0.3-3-0.4c0.2-0.9,0.3-1.7,0.4-2.6
			c0.3,0.1,0.4,0.1,0.8,0.1c0.2-1.5,0.5-2.9,0.7-4.3c-0.3-0.1-0.4-0.1-0.7-0.1c0.1-0.8,0.3-1.6,0.4-2.4c0.8,0.1,1.6,0.3,2.4,0.4
			c1,0.1,1.7,0.8,1.6,1.8c-0.1,0.7-0.1,1-0.2,1.7c0,0.3-0.1,0.5-0.2,0.7c-0.1,0.2-0.4,0.3-0.7,0.4c0,0,0,0,0,0.1
			c0.4,0.2,0.7,0.4,0.8,0.7c0.1,0.2,0.1,0.5,0.1,1C56.8,93.1,56.7,93.4,56.7,93.9z M55.9,89.8c0-0.3,0.1-0.4,0.1-0.6
			c0-0.3-0.1-0.5-0.5-0.5c-0.5-0.1-0.7-0.1-1.2-0.2c-0.1,0.7-0.2,1.1-0.3,1.8c0.5,0.1,0.7,0.1,1.2,0.2
			C55.6,90.5,55.9,90.3,55.9,89.8z M55.8,92.5c0-0.3,0.1-0.4,0.1-0.6c0-0.2,0-0.4-0.2-0.5c-0.1-0.1-0.3-0.2-0.5-0.2
			C54.7,91,54.5,91,54,90.9c-0.1,0.8-0.2,1.1-0.3,1.9c0.5,0.1,0.8,0.1,1.4,0.2C55.5,93.1,55.8,92.9,55.8,92.5z"/>
		<path fill="#F4EAD1" d="M62.1,96c-1.6,0-3.2-0.1-4.9-0.2c0.1-0.9,0.1-1.7,0.2-2.6c0.3,0,0.4,0,0.8,0.1c0.1-1.5,0.2-2.9,0.3-4.4
			c-0.3,0-0.4,0-0.7-0.1c0.1-0.8,0.1-1.6,0.2-2.4c1.4,0.1,2.7,0.2,4.1,0.2c0,1.3,0,2.5,0,3.8c-0.4,0-0.6,0-1,0c0-0.3,0-0.4,0-0.7
			c0-0.4-0.2-0.6-0.7-0.7c-0.4,0-0.6,0-1-0.1c0,0.7-0.1,1.1-0.1,1.8c0.5,0,0.8,0,1.3,0.1c0,0.3,0,0.4,0,0.7c-0.5,0-0.8,0-1.3-0.1
			c0,0.8-0.1,1.2-0.1,1.9c0.4,0,0.6,0,1.1,0.1c0.5,0,0.8-0.2,0.8-0.6c0-0.4,0-0.5,0-0.9c0.4,0,0.6,0,1,0
			C62.1,93.3,62.1,94.7,62.1,96z"/>
		<path fill="#F4EAD1" d="M68.7,95.7c-0.4,0.1-0.7,0.1-1.1,0.1c-0.7,0.1-1.1-0.3-1.1-1.1c-0.1-0.8-0.1-1.6-0.2-2.3
			c-0.1-0.7-0.4-1-1.2-0.9c-0.2,0-0.3,0-0.4,0c0,0.8,0.1,1.2,0.1,1.9c0.3,0,0.4,0,0.8,0c0.1,0.9,0.1,1.7,0.2,2.6
			C64.8,96,63.9,96,63,96.1c0-0.9,0-1.7,0-2.6c0.3,0,0.5,0,0.8,0c-0.1-1.5-0.1-2.9-0.1-4.4c-0.3,0-0.4,0-0.7,0c0-0.8,0-1.6,0-2.5
			c0.8,0,1.5,0,2.3-0.1c1.2-0.1,2,0.7,2.1,1.9c0,0.4,0.1,0.6,0.1,1c0,0.4,0,0.7-0.1,1c-0.1,0.3-0.4,0.5-0.7,0.7c0,0,0,0,0,0.1
			c0.5,0.1,0.7,0.4,0.8,1c0,0.1,0,0.1,0,0.2c0,0.1,0,0.2,0,0.2c0,0.2,0.1,0.4,0.2,0.5c0.1,0.1,0.2,0.1,0.4,0.1c0.3,0,0.4,0,0.6-0.1
			C68.5,93.9,68.6,94.8,68.7,95.7z M66.3,89.8c0-0.3-0.1-0.6-0.3-0.7c-0.2-0.1-0.4-0.2-0.8-0.2c-0.3,0-0.4,0-0.7,0
			c0,0.7,0.1,1.1,0.1,1.8c0.3,0,0.4,0,0.7,0C66,90.7,66.4,90.4,66.3,89.8z"/>
		<path fill="#F4EAD1" d="M73.2,93.6c0.1,0.4,0,0.8-0.2,1.1c-0.2,0.4-0.6,0.6-1.1,0.6c-0.6,0.1-1.1-0.1-1.5-0.5c0,0-0.1,0-0.1,0
			c0,0.3,0,0.4,0,0.6c-0.4,0.1-0.5,0.1-0.9,0.1c-0.2-1.2-0.3-2.5-0.4-3.7c0.4-0.1,0.6-0.1,1-0.1c0,0.2,0.1,0.3,0.1,0.6
			c0,0.2,0.1,0.3,0.2,0.4c0.1,0.1,0.3,0.1,0.5,0.1c0.3-0.1,0.4-0.1,0.7-0.1c0.4-0.1,0.6-0.3,0.5-0.6c-0.1-0.3-0.1-0.4-0.1-0.8
			c-0.1-0.4-0.4-0.6-0.9-0.5c-0.1,0-0.2,0-0.3,0.1c-0.2,0-0.3,0.1-0.4,0.1c-0.5,0.1-0.9,0-1.1-0.2c-0.3-0.2-0.4-0.5-0.4-1
			c-0.1-0.7-0.1-1.1-0.2-1.8c-0.1-0.4,0-0.8,0.2-1.2c0.2-0.4,0.5-0.6,1-0.7c0.5-0.1,0.9,0.1,1.3,0.5c0,0,0,0,0.1,0
			c0-0.2,0-0.3,0-0.6c0.3-0.1,0.5-0.1,0.8-0.1c0.2,1.1,0.4,2.2,0.6,3.3c-0.4,0.1-0.5,0.1-0.9,0.2c-0.1-0.3-0.1-0.5-0.2-0.6
			c-0.1-0.2-0.3-0.3-0.6-0.2c-0.3,0.1-0.4,0.1-0.6,0.1c-0.3,0.1-0.5,0.2-0.5,0.5c0,0.1,0,0.3,0.1,0.7c0.1,0.4,0.3,0.6,0.7,0.6
			c0.8-0.1,1.3-0.2,1.6-0.2c0.5,0.1,0.8,0.4,0.9,0.9C72.8,91.9,73,92.7,73.2,93.6z"/>
		<path fill="#F4EAD1" d="M79.8,93.4c-0.8,0.2-1.7,0.5-2.5,0.7c-0.2-0.8-0.4-1.7-0.6-2.5c0.3-0.1,0.4-0.1,0.6-0.2
			c-0.2-0.8-0.3-1.1-0.5-1.9c-0.7,0.2-1.1,0.3-1.8,0.4c0.2,0.8,0.3,1.1,0.4,1.9c0.3-0.1,0.4-0.1,0.6-0.2c0.2,0.8,0.4,1.7,0.6,2.5
			c-0.8,0.2-1.7,0.4-2.5,0.6c-0.2-0.9-0.3-1.7-0.5-2.5c0.3-0.1,0.5-0.1,0.8-0.2c-0.3-1.4-0.6-2.9-0.9-4.3c-0.3,0.1-0.4,0.1-0.7,0.2
			c-0.2-0.8-0.3-1.6-0.5-2.4c0.7-0.2,1.4-0.3,2.1-0.5c0.2,0.8,0.4,1.6,0.6,2.4c-0.2,0.1-0.4,0.1-0.6,0.2c0.2,0.7,0.2,1,0.4,1.7
			c0.7-0.2,1.1-0.3,1.8-0.4c-0.2-0.7-0.3-1-0.5-1.7c-0.2,0.1-0.4,0.1-0.6,0.2c-0.2-0.8-0.4-1.6-0.6-2.4c0.7-0.2,1.4-0.4,2.1-0.6
			c0.2,0.8,0.5,1.6,0.7,2.4c-0.3,0.1-0.4,0.1-0.7,0.2c0.4,1.4,0.8,2.8,1.2,4.2c0.3-0.1,0.4-0.1,0.8-0.2
			C79.3,91.8,79.6,92.6,79.8,93.4z"/>
		<path fill="#F4EAD1" d="M84.2,90c0.5,1.2-0.4,2.1-1.5,2.5c-0.7,0.2-1.2,0.3-1.7,0.1c-0.5-0.2-0.8-0.5-1-1.1
			c-0.6-1.9-1.2-3.8-1.8-5.6c-0.4-1.1,0.2-2,1.2-2.4c1-0.4,2.1,0,2.5,1.1C82.8,86.4,83.5,88.2,84.2,90z M82.7,88.9
			c-0.3-0.9-0.6-1.7-1-2.6c-0.2-0.5-0.5-0.6-1.1-0.4c-0.1,0.1-0.2,0.1-0.3,0.1c-0.5,0.2-0.8,0.5-0.6,1c0.3,0.9,0.6,1.8,0.9,2.6
			c0.2,0.5,0.5,0.6,1.1,0.4C81.8,90,81.9,90,82,90C82.7,89.7,82.8,89.4,82.7,88.9z"/>
		<path fill="#F4EAD1" d="M87.4,83.9c0.6,1-0.3,1.9-1.2,2.3c-0.2,0.1-0.3,0.2-0.6,0.3c0.3,0.7,0.5,1.1,0.8,1.8
			c0.5-0.2,0.7-0.3,1.2-0.5c0.4,0.8,0.8,1.6,1.1,2.3c-1,0.5-2,0.9-3,1.3c-0.3-0.8-0.6-1.6-1-2.4c0.3-0.1,0.4-0.2,0.7-0.3
			c-0.6-1.3-1.2-2.7-1.7-4c-0.3,0.1-0.4,0.2-0.7,0.3c-0.3-0.8-0.6-1.5-0.9-2.3c0.7-0.3,1.3-0.6,2-0.9c0.6-0.3,1.2-0.4,1.6-0.2
			c0.4,0.2,0.8,0.5,1.1,1.2C87,83.2,87.2,83.4,87.4,83.9z M86.4,84.3c-0.2-0.3-0.3-0.5-0.5-0.5c-0.2-0.1-0.4,0-0.8,0.2
			c-0.2,0.1-0.3,0.2-0.5,0.3c0.3,0.6,0.4,1,0.7,1.6c0.2-0.1,0.3-0.2,0.6-0.3C86.5,85.3,86.7,84.9,86.4,84.3z"/>
	</g>
</g>
</svg>
