<?xml version="1.0" encoding="utf-8"?>
<!-- Generator: Adobe Illustrator 18.1.1, SVG Export Plug-In . SVG Version: 6.00 Build 0)  -->
<svg version="1.1" id="Слой_1" xmlns="http://www.w3.org/2000/svg" xmlns:xlink="http://www.w3.org/1999/xlink" x="0px" y="0px"
	 viewBox="0 0 40 40" enable-background="new 0 0 40 40" xml:space="preserve">
<path fill="#F4EAD1" d="M37.5,35.4c-0.2-2.5-3.5-2.6-4-1.7c1.2-0.3,2.8,0.7,2.5,2c-0.4,1.4-2.1,1.8-4.1,0.6c-2.4-1.4-2.6-3.5-5.3-5
	c-2.7-1.5-4.8-0.6-4.8-0.6c-1,0.3-1.4,0.8-1.7,0.9c-0.3,0-0.8-0.5-1.7-0.9c0,0-2.1-0.9-4.8,0.6c-2.7,1.5-3,3.6-5.3,5
	c-2,1.2-3.7,0.8-4.1-0.6c-0.4-1.3,1.3-2.3,2.5-2c-0.5-1-3.8-0.8-4,1.7c-0.3,3.2,3.2,6.4,11.4,3c1.9-0.8,3.2-1.4,5.1-3
	c0.2-0.2,0.5-0.3,0.9-0.4c0,0,0.1,0,0.1,0s0.1,0,0.1,0c0.3,0,0.6,0.2,0.9,0.4c1.9,1.5,3.2,2.1,5.1,3C34.2,41.8,37.8,38.5,37.5,35.4z
	"/>
<path fill="#F4EAD1" d="M31.6,17.7c-1.4-0.9-2.5-0.7-2.5-0.7s-0.9,2.3-1.8,1.8c-1.3-0.8,0.9-1.2,0.9-2.2c0-0.9-0.5-10.6,1.5-14.5
	c-0.3-0.8-4.6-1.9-10.5-1.9c0,0-7.7,0-8.8,1.6c0,0.7,1.7,2,1.1,15.2c0.2,0.7,1,1.6,1.2,1.3C13,18,13,5.6,12.9,5.5
	c-0.1-0.1,0.1-0.6,0.3-0.4c0.1,0.2,0.1,7.8,0.2,8c0,0.2,0.3,0.4,0.4,0c0.1-0.4,0-7.4,0-7.5c0-0.1,0.4-0.5,0.7,0.2
	c0.3,0.7,0,9.2,0,9.2s0.4,0.4,0.4,0c0-0.4,0.2-3.7,0.2-4c0-0.3,0.5-0.2,0.5,0.3c0,0.5-0.1,8.2-0.1,8.2s3.1,0.5,5.4,0.1
	c2.3-0.3,3.1-0.4,3.2-0.2c0.2,0.4,0.4,0.9-1.5,1.3c-3.4,0.8-8,0.3-10.4-1.3c-1.4-1-1.5-2.1-1.6-2.4c-0.1-0.3-3.8,0.6-3.5,2.7
	c0.2,2.2,6.7,8.2,12.9,8.2c7.3,0,11.8-4.6,12.6-7.1C32.8,19.6,33.4,19.1,31.6,17.7z M20.3,26.7C12,26.3,8.8,19.6,8.8,18.6
	c0-1,0.5-0.6,0.5-0.6c1.7,5.3,7.3,7.4,10.5,7.6c8.5,0,10.5-5.7,10.9-6.4c0.4-0.8,0.6-0.8,0.8-0.3C31.7,19.2,28.6,27,20.3,26.7z"/>
</svg>
