<?xml version="1.0" encoding="utf-8"?>
<!-- Generator: Adobe Illustrator 18.1.1, SVG Export Plug-In . SVG Version: 6.00 Build 0)  -->
<svg version="1.1" id="Слой_1" xmlns="http://www.w3.org/2000/svg" xmlns:xlink="http://www.w3.org/1999/xlink" x="0px" y="0px"
	 viewBox="0 0 200 200" enable-background="new 0 0 200 200" xml:space="preserve">
<g>
	<path fill="#12100B" d="M27.4,143.3h-3v-2.5c0-1-0.2-1.6-0.5-2c-0.4-0.4-1-0.5-2-0.5H8.9v-9.9h2.5v-16.7H8.9v-9.3h8v9.3h-2.2v16.7
		H21v-16.7h-2.2v-9.3h8v9.3h-2.5v16.7h3L27.4,143.3L27.4,143.3z"/>
	<path fill="#12100B" d="M45.5,138.4h-6.2v-8.2h1.7v-8.4l-7.6,6.8v1.6h1.9v8.2H29v-8.2h1.6v-12.8H29V110h6.3v7.4h-1.9v8.4l7.6-6.7
		v-1.6h-1.7V110h6.2v7.4h-1.6v12.8h1.6V138.4z"/>
	<path fill="#12100B" d="M61.5,130.2c0,5.5-1.7,8.2-5,8.2c-2.1,0-3.6-0.9-4.5-2.7h-0.2v5.1h2.2v6.4h-6.5v-6.4H49v-23.4h-1.6v-7.4h4
		l0.4,2.6H52c0.9-1.9,2.4-2.8,4.5-2.8c2.2,0,3.7,0.7,4.4,2.2c0.5,1,0.7,2.7,0.7,5.2L61.5,130.2L61.5,130.2z M58.7,128v-8.4
		c0-1.5-0.6-2.2-1.8-2.2h-3c-1.4,0-2.2,0.7-2.2,2.2v8.4c0,1.5,0.7,2.2,2.2,2.2h3C58.1,130.2,58.7,129.5,58.7,128z"/>
	<path fill="#12100B" d="M84.3,130.9c0,2.4-0.4,4.2-1.1,5.4c-1,1.5-2.6,2.2-4.9,2.2s-4-0.7-5-2.2c-0.8-1.2-1.2-3-1.2-5.5v-6.3h-3.4
		v5.6h1.6v8.2h-6.1v-8.2H66v-12.8h-1.6V110h6.1v7.4h-1.6v5h3.4v-5c0-2.5,0.4-4.4,1.2-5.5c0.9-1.4,2.6-2.1,5-2.1c2.4,0,4,0.7,4.9,2.2
		c0.7,1.1,1.1,3,1.1,5.5V130.9z M81.6,128.1v-8.5c0-1.4-0.6-2.2-1.6-2.2h-3.3c-1.2,0-1.7,0.7-1.7,2.2v8.5c0,1.4,0.6,2.1,1.7,2.1h3.3
		C81.1,130.2,81.6,129.5,81.6,128.1z"/>
	<path fill="#12100B" d="M102.4,138.4h-6.2v-8.2H98v-12.8h-4.4c-0.5,0-0.9,0.4-1.2,1.2s-0.5,2.1-0.5,3.7v9c0,2.9-0.2,4.8-0.7,5.7
		c-0.5,0.9-1.4,1.4-2.8,1.4h-1.9v-8.2c1,0,1.6-0.1,1.9-0.2c0.5-0.2,0.7-0.8,0.7-1.6v-7.1c0-1.7,0.4-2.9,1-3.7v-0.2h-2.7V110h15v7.4
		h-1.6v12.8h1.6L102.4,138.4L102.4,138.4z"/>
	<path fill="#12100B" d="M117.7,130.2c0,2.7-0.3,4.7-0.8,5.8c-0.8,1.6-2.4,2.4-4.8,2.4h-7.7v-8.2h1.6v-12.8h-1.6V110h6.7v7.4h-2.3v5
		h3.5c1.9,0,3.2,0.5,4.1,1.4c0.9,1,1.3,2.2,1.3,3.7V130.2z M114.9,127.5c0-2-0.9-2.9-2.8-2.9h-3.3v5.6h3.5
		C114,130.2,114.9,129.3,114.9,127.5z"/>
	<path fill="#12100B" d="M135.1,138.4h-6.2v-8.2h1.7v-5.6H124v5.6h1.9v8.2h-6.3v-8.2h1.6v-12.8h-1.6V110h6.4v7.4h-1.9v5h6.7v-5H129
		V110h6.2v7.4h-1.6v12.8h1.6L135.1,138.4L135.1,138.4z"/>
	<path fill="#12100B" d="M153.4,138.4h-6.2v-8.2h1.7v-8.4l-7.6,6.8v1.6h1.9v8.2H137v-8.2h1.6v-12.8H137V110h6.3v7.4h-1.9v8.4
		l7.6-6.7v-1.6h-1.7V110h6.2v7.4h-1.6v12.8h1.6V138.4z"/>
	<path fill="#12100B" d="M170.9,138.4h-6.6v-8.2h2.1v-2.5c0-0.9-0.3-1.6-0.8-2.2c-0.5-0.6-1.2-0.8-2.1-0.8h-3.8v5.5h1.6v8.2h-6.1
		v-8.2h1.6v-12.8h-1.6V110h6.1v7.4h-1.6v5.1h0.2l5.3-4.9v-0.2h-1.4V110h6.2v7.4h-1.5l-5.5,4.9v0.2h0.7c1.5,0,2.8,0.5,3.9,1.4
		c1,1,1.6,2.2,1.6,3.8v2.5h1.8v8.1H170.9z"/>
	<path fill="#12100B" d="M191.2,130.5c0,2.7-0.5,4.6-1.5,5.8c-1.1,1.3-2.9,2-5.5,2h-9v-9.9h3.5v-16.7h-1.1c-1,0-1.6,0.2-2,0.5
		s-0.5,1-0.5,2v2.7H172v-14.5h14.3v9.3h-4.2v6.8c2,0,3.3,0.1,3.9,0.1c1.5,0.2,2.7,0.7,3.5,1.4c1.1,1,1.7,2.4,1.7,4.3
		C191.2,124.3,191.2,130.5,191.2,130.5z M187.8,125c0-2.6-1.2-3.9-3.5-3.9h-2.1v7.4h2.1c1.3,0,2.2-0.3,2.7-0.8
		C187.5,127.2,187.8,126.3,187.8,125z"/>
</g>
<path fill="#12100B" d="M137.1,92.5c-0.5-5.2-7.5-5.6-8.5-3.5c2.5-0.7,6,1.5,5.2,4.2c-0.8,2.9-4.4,3.8-8.6,1.3
	c-5-2.9-5.6-7.5-11.3-10.6c-5.7-3.1-10.2-1.3-10.2-1.3c-2.1,0.7-2.9,1.7-3.7,1.8c-0.7-0.1-1.6-1.1-3.7-1.8c0,0-4.5-1.9-10.2,1.3
	C80.6,87,80,91.6,75,94.5c-4.3,2.5-7.8,1.6-8.6-1.3c-0.8-2.7,2.8-4.9,5.2-4.2c-1-2.1-8-1.7-8.5,3.5c-0.7,6.7,6.8,13.6,24.2,6.3
	c4.1-1.7,6.7-3,10.8-6.3c0.5-0.4,1.1-0.7,1.8-0.8c0.1,0,0.2,0,0.3,0c0.1,0,0.2,0,0.3,0c0.7,0.1,1.3,0.4,1.8,0.8
	c4.1,3.2,6.7,4.5,10.8,6.3C130.3,106.1,137.8,99.2,137.1,92.5z"/>
<path fill="#12100B" d="M124.6,55.2c-2.9-1.9-5.2-1.5-5.2-1.5s-2,4.9-3.8,3.8c-2.7-1.7,2-2.6,2-4.6c0-1.8-1-22.5,3.2-30.6
	c-0.6-1.6-9.8-4.1-22.1-4.1c0,0-16.2,0.1-18.7,3.4c-0.1,1.4,3.7,4.3,2.4,32.1c0.4,1.5,2.1,3.4,2.5,2.8c0.5-0.7,0.4-26.9,0.3-27.2
	C85,29,85.4,28,85.8,28.4c0.3,0.4,0.3,16.5,0.4,16.9c0.1,0.4,0.7,0.9,0.9,0c0.2-0.9-0.1-15.6,0-15.9c0.1-0.3,0.8-1.1,1.4,0.4
	c0.6,1.4-0.1,19.5-0.1,19.5s0.9,0.8,0.9-0.1c0.1-0.9,0.5-7.9,0.5-8.5c0-0.7,1-0.5,1.1,0.6c0.1,1.1-0.3,17.3-0.3,17.3
	s6.6,1.1,11.4,0.3c4.8-0.7,6.6-0.8,6.8-0.4c0.4,0.8,0.8,2-3.2,2.8c-7.2,1.6-16.9,0.7-21.9-2.8c-2.9-2.1-3.2-4.4-3.3-5
	c-0.2-0.7-8,1.2-7.5,5.8C73.3,63.7,87,76.4,100,76.5c15.4,0.1,24.9-9.8,26.6-15C127.3,59.2,128.5,58.1,124.6,55.2z M100.8,74.2
	C83.2,73.4,76.4,59.1,76.5,57c0-2.1,1.1-1.3,1.1-1.3c3.6,11.3,15.5,15.7,22.2,16c17.9,0.1,22.3-12,23.1-13.6
	c0.8-1.6,1.2-1.6,1.6-0.7C124.8,58.3,118.4,74.9,100.8,74.2z"/>
<rect x="157.4" y="163.7" fill="#12100B" width="42.8" height="2.2"/>
<rect x="-0.1" y="163.7" fill="#12100B" width="42.8" height="2.2"/>
<g>
	<g>
		<path fill="#12100B" d="M56.7,168.9c-0.4,0.9-1,1.5-2.1,1.9c-1,0.4-2.1,0.4-3.2-0.2c-1.9-0.8-3.7-1.7-5.6-2.7
			c0.8-1.5,1.5-3,2.3-4.6c0.6,0.3,0.8,0.4,1.4,0.7c1.3-2.6,2.6-5.2,3.9-7.8c-0.5-0.3-0.8-0.4-1.3-0.6c0.7-1.4,1.5-2.9,2.2-4.3
			c1.5,0.7,3,1.4,4.5,2.2c1.8,0.7,2.9,2.4,2,4.3c-0.5,1.2-0.8,1.9-1.3,3.1c-0.3,0.6-0.5,1-0.9,1.2c-0.4,0.2-0.9,0.4-1.6,0.4
			c0,0.1,0,0.1-0.1,0.1c0.7,0.6,1.1,1.1,1.1,1.7c0.1,0.5-0.1,1.1-0.5,1.9C57.4,167.4,57.2,167.9,56.7,168.9z M57.6,160.7
			c0.2-0.5,0.3-0.7,0.5-1.2c0.3-0.6,0.1-1-0.7-1.3c-0.9-0.4-1.3-0.6-2.3-1c-0.6,1.3-0.9,1.9-1.5,3.2c0.9,0.4,1.3,0.6,2.2,1
			C56.7,161.7,57.3,161.5,57.6,160.7z M55.9,165.7c0.2-0.5,0.3-0.7,0.5-1.2c0.2-0.4,0.2-0.7-0.1-1c-0.2-0.3-0.5-0.6-0.9-0.8
			c-0.9-0.4-1.4-0.6-2.3-1.1c-0.7,1.4-1,2.1-1.6,3.4c1,0.5,1.5,0.7,2.5,1.1C54.9,166.6,55.5,166.4,55.9,165.7z"/>
		<path fill="#12100B" d="M67.8,176.7c-1.6-0.5-3.3-1-4.9-1.5c0.6-1.6,1.1-3.2,1.6-4.9c0.6,0.2,0.9,0.3,1.4,0.5
			c0.1-1.2,0.1-1.7,0.2-2.9c-1.3-0.4-1.9-0.6-3.2-1.1c-0.7,1-1,1.4-1.7,2.4c0.6,0.2,0.9,0.3,1.4,0.5c-0.6,1.6-1.1,3.2-1.7,4.8
			c-1.6-0.6-3.2-1.2-4.8-1.8c0.6-1.6,1.3-3.2,1.9-4.8c0.5,0.2,0.8,0.3,1.3,0.5c1.7-2.4,3.5-4.9,5.2-7.4c-0.4-0.2-0.6-0.2-1-0.4
			c0.6-1.5,1.1-3,1.7-4.6c1.9,0.7,3.7,1.3,5.6,1.9c-0.5,1.5-1,3.1-1.4,4.6c-0.4-0.1-0.6-0.2-1-0.3c-0.2,3-0.4,6-0.5,9
			c0.6,0.2,0.8,0.3,1.4,0.4C68.7,173.4,68.2,175,67.8,176.7z M66.2,166.4c0.1-1.5,0.3-3.1,0.4-4.7c-0.2-0.1-0.3-0.1-0.4-0.2
			c-0.8,1.3-1.7,2.6-2.5,3.9C64.7,165.9,65.2,166.1,66.2,166.4z"/>
		<path fill="#12100B" d="M79.5,179.4c-0.9-0.2-1.3-0.3-2.2-0.4c-1.4-0.3-1.9-1.2-1.5-2.7c0.3-1.5,0.7-3,1-4.5
			c0.3-1.3-0.3-2.1-1.7-2.5c-0.4-0.1-0.5-0.1-0.9-0.2c-0.4,1.5-0.6,2.2-0.9,3.7c0.6,0.2,0.9,0.2,1.5,0.4c-0.4,1.6-0.8,3.3-1.2,5
			c-1.7-0.4-3.4-0.9-5.1-1.3c0.5-1.6,0.9-3.3,1.4-4.9c0.6,0.2,0.9,0.3,1.5,0.4c0.8-2.8,1.5-5.6,2.3-8.4c-0.6-0.2-0.8-0.2-1.4-0.4
			c0.5-1.5,0.9-3.1,1.3-4.7c1.4,0.4,2.9,0.8,4.4,1.1c2.4,0.5,3.4,2.5,2.9,4.8c-0.2,0.8-0.3,1.2-0.4,2c-0.2,0.8-0.4,1.4-0.8,1.8
			s-1,0.7-1.7,0.9c0,0.1,0,0.1,0,0.1c0.8,0.5,1.1,1.2,0.9,2.3c0,0.1-0.1,0.3-0.1,0.4s-0.1,0.3-0.1,0.4c-0.1,0.5-0.1,0.8,0.1,1
			c0.1,0.2,0.3,0.4,0.6,0.4c0.5,0.1,0.7,0.2,1.2,0.2C80.1,175.9,79.8,177.6,79.5,179.4z M78.3,166.9c0.2-0.7,0.1-1.1-0.2-1.5
			s-0.7-0.6-1.4-0.8c-0.6-0.1-0.8-0.2-1.3-0.3c-0.4,1.4-0.5,2.1-0.9,3.4c0.6,0.2,0.8,0.2,1.4,0.4C77.3,168.4,78.1,168,78.3,166.9z"
			/>
		<path fill="#12100B" d="M90.8,177.2c-0.1,0.9-0.6,1.7-1.4,2.4c-0.9,0.7-1.9,0.9-3,0.8c-2-0.3-4-0.6-6-0.9c0.3-1.7,0.6-3.4,0.9-5.1
			c0.6,0.1,0.9,0.2,1.5,0.3c0.5-2.9,0.9-5.8,1.4-8.6c-0.6-0.1-0.8-0.2-1.4-0.2c0.3-1.6,0.6-3.2,0.8-4.8c1.6,0.3,3.2,0.5,4.8,0.7
			c2,0.2,3.4,1.5,3.1,3.5c-0.1,1.3-0.2,2-0.3,3.4c-0.1,0.6-0.2,1.1-0.5,1.4c-0.3,0.3-0.7,0.6-1.4,0.9c0,0.1,0,0.1,0,0.1
			c0.8,0.3,1.3,0.8,1.5,1.3c0.2,0.4,0.2,1.1,0.1,2C91,175.5,90.9,176.1,90.8,177.2z M89.4,169.1c0.1-0.5,0.1-0.8,0.2-1.3
			c0.1-0.6-0.3-1-1-1.1c-1-0.1-1.4-0.2-2.4-0.3c-0.2,1.4-0.3,2.1-0.5,3.5c0.9,0.2,1.4,0.2,2.4,0.3C88.8,170.4,89.2,170,89.4,169.1z
			 M89.1,174.3c0.1-0.5,0.1-0.8,0.2-1.3c0.1-0.4-0.1-0.7-0.3-1s-0.6-0.4-1-0.5c-1-0.1-1.5-0.2-2.5-0.3c-0.2,1.5-0.3,2.3-0.6,3.8
			c1.1,0.2,1.6,0.2,2.7,0.4C88.5,175.5,89,175.2,89.1,174.3z"/>
		<path fill="#12100B" d="M101.6,181.4c-3.2,0-6.4-0.2-9.6-0.4c0.2-1.7,0.3-3.4,0.4-5.1c0.6,0.1,0.9,0.1,1.5,0.1
			c0.2-2.9,0.4-5.8,0.6-8.7c-0.6-0.1-0.8-0.1-1.4-0.1c0.1-1.6,0.3-3.2,0.4-4.8c2.7,0.2,5.5,0.3,8.2,0.3c0,2.5,0,5,0,7.6
			c-0.8,0-1.2,0-2,0c0-0.6,0-0.8,0-1.4c0-0.9-0.5-1.3-1.4-1.3c-0.8,0-1.2-0.1-2-0.1c-0.1,1.4-0.1,2.1-0.2,3.5c1,0.1,1.5,0.1,2.6,0.1
			c0,0.5,0,0.8-0.1,1.3c-1-0.1-1.5-0.1-2.6-0.1c-0.1,1.5-0.1,2.3-0.2,3.8c0.9,0.1,1.3,0.1,2.1,0.1c1,0.1,1.5-0.4,1.5-1.1
			c0-0.7,0-1.1,0.1-1.8c0.8,0,1.2,0,2,0C101.6,176,101.6,178.7,101.6,181.4z"/>
		<path fill="#12100B" d="M114.6,180.7c-0.9,0.1-1.3,0.2-2.2,0.2c-1.4,0.1-2.2-0.6-2.3-2.2c-0.1-1.5-0.2-3.1-0.3-4.6
			c-0.1-1.3-0.9-2-2.3-1.9c-0.4,0-0.5,0.1-0.9,0.1c0.1,1.5,0.1,2.3,0.2,3.8c0.6-0.1,0.9-0.1,1.5-0.1c0.1,1.7,0.2,3.4,0.3,5.1
			c-1.7,0.1-3.5,0.2-5.3,0.2c0-1.7-0.1-3.4-0.1-5.1c0.6,0,0.9,0,1.5-0.1c-0.1-2.9-0.2-5.8-0.3-8.7c-0.6,0-0.9,0-1.4,0.1
			c0-1.6-0.1-3.2-0.1-4.9c1.5,0,3-0.1,4.5-0.2c2.4-0.2,4,1.4,4.1,3.8c0.1,0.8,0.1,1.2,0.2,2c0.1,0.8,0,1.4-0.3,2
			c-0.3,0.5-0.7,1-1.4,1.4c0,0.1,0,0.1,0,0.1c0.9,0.3,1.4,0.9,1.5,1.9c0,0.1,0,0.3,0.1,0.4c0,0.2,0.1,0.3,0.1,0.4
			c0.1,0.5,0.2,0.8,0.4,0.9c0.2,0.2,0.4,0.3,0.7,0.3c0.5-0.1,0.7-0.1,1.2-0.1C114.2,177.2,114.4,179,114.6,180.7z M109.9,169.1
			c-0.1-0.7-0.3-1.1-0.6-1.4c-0.4-0.3-0.9-0.4-1.6-0.3c-0.6,0.1-0.8,0.1-1.4,0.1c0.1,1.4,0.1,2.1,0.2,3.5c0.6,0,0.9-0.1,1.4-0.1
			C109.4,170.9,110,170.2,109.9,169.1z"/>
		<path fill="#12100B" d="M123.5,176.6c0.2,0.8,0,1.5-0.5,2.2c-0.5,0.7-1.2,1.1-2.2,1.3c-1.2,0.2-2.3-0.2-3-1c-0.1,0-0.1,0-0.2,0
			c0,0.5-0.1,0.8-0.1,1.2c-0.7,0.1-1.1,0.2-1.9,0.2c-0.3-2.5-0.6-4.9-0.9-7.4c0.8-0.1,1.2-0.2,2-0.3c0.1,0.5,0.1,0.7,0.2,1.1
			c0.1,0.3,0.2,0.6,0.5,0.7c0.3,0.2,0.6,0.2,0.9,0.2c0.6-0.1,0.8-0.1,1.4-0.2c0.9-0.2,1.2-0.6,1.1-1.3c-0.1-0.6-0.2-0.9-0.3-1.5
			c-0.2-0.8-0.7-1.1-1.7-1c-0.2,0-0.4,0.1-0.7,0.1c-0.3,0.1-0.6,0.1-0.7,0.1c-1,0.2-1.7,0-2.3-0.5c-0.5-0.5-0.8-1.1-0.9-2
			c-0.2-1.4-0.3-2.2-0.4-3.7c-0.1-0.9,0.1-1.6,0.4-2.4c0.5-0.8,1.1-1.3,2-1.4c1-0.2,1.8,0.2,2.6,0.9c0.1,0,0.1,0,0.1,0
			c0-0.5,0-0.7,0-1.1c0.6-0.1,0.9-0.2,1.5-0.3c0.4,2.2,0.8,4.4,1.2,6.6c-0.7,0.2-1.1,0.2-1.9,0.3c-0.1-0.6-0.2-1-0.4-1.2
			c-0.2-0.4-0.6-0.5-1.1-0.5c-0.5,0.1-0.8,0.1-1.3,0.2c-0.6,0.1-1,0.4-1,0.9c0,0.2,0.1,0.7,0.2,1.4c0.1,0.9,0.6,1.2,1.4,1.1
			c1.6-0.3,2.7-0.4,3.1-0.3c1,0.1,1.6,0.7,1.8,1.9C122.9,173.2,123.2,174.9,123.5,176.6z"/>
		<path fill="#12100B" d="M136.7,176.2c-1.6,0.5-3.3,0.9-4.9,1.4c-0.4-1.6-0.8-3.3-1.3-5c0.5-0.2,0.8-0.2,1.3-0.4
			c-0.4-1.5-0.6-2.2-1-3.7c-1.4,0.4-2.2,0.6-3.6,0.9c0.4,1.5,0.5,2.3,0.9,3.8c0.5-0.1,0.8-0.2,1.3-0.3c0.4,1.6,0.8,3.3,1.2,5
			c-1.6,0.4-3.3,0.8-5,1.1c-0.4-1.7-0.7-3.3-1-5c0.6-0.1,0.9-0.2,1.5-0.3c-0.6-2.8-1.2-5.7-1.8-8.5c-0.6,0.1-0.8,0.2-1.4,0.3
			c-0.3-1.6-0.6-3.2-0.9-4.8c1.4-0.3,2.8-0.6,4.2-0.9c0.4,1.6,0.8,3.1,1.1,4.7c-0.5,0.1-0.7,0.2-1.2,0.3c0.3,1.4,0.5,2.1,0.8,3.4
			c1.4-0.3,2.2-0.5,3.5-0.9c-0.4-1.4-0.6-2.1-0.9-3.4c-0.5,0.1-0.7,0.2-1.2,0.3c-0.4-1.6-0.8-3.1-1.2-4.7c1.4-0.4,2.8-0.7,4.2-1.2
			c0.5,1.5,0.9,3.1,1.4,4.7c-0.6,0.2-0.8,0.3-1.4,0.4c0.8,2.8,1.6,5.6,2.4,8.4c0.6-0.2,0.9-0.3,1.5-0.4
			C135.7,173,136.2,174.6,136.7,176.2z"/>
		<path fill="#12100B" d="M145.5,169.5c1,2.4-0.7,4.2-2.9,4.9c-1.3,0.5-2.5,0.5-3.4,0.2c-0.9-0.4-1.5-1.1-1.9-2.2
			c-1.2-3.7-2.3-7.5-3.5-11.2c-0.8-2.2,0.5-4,2.5-4.7c2-0.7,4.2-0.1,4.9,2.1C142.6,162.3,144,165.9,145.5,169.5z M142.3,167.2
			c-0.7-1.7-1.3-3.4-2-5.1c-0.4-1-1.1-1.2-2.2-0.9c-0.3,0.1-0.4,0.1-0.6,0.2c-1.1,0.4-1.5,1.1-1.1,2.1c0.6,1.7,1.2,3.5,1.7,5.2
			c0.3,1,1.1,1.3,2.3,0.9c0.3-0.1,0.4-0.2,0.6-0.2C142.3,168.9,142.7,168.2,142.3,167.2z"/>
		<path fill="#12100B" d="M151.7,157.4c1.1,2.1-0.7,3.8-2.5,4.5c-0.5,0.2-0.7,0.3-1.1,0.5c0.6,1.4,0.9,2.1,1.6,3.5
			c0.9-0.4,1.4-0.7,2.4-1.1c0.7,1.5,1.5,3.1,2.2,4.6c-2,0.9-4,1.8-6,2.7c-0.7-1.6-1.3-3.2-2-4.7c0.6-0.3,0.9-0.4,1.4-0.6
			c-1.1-2.7-2.3-5.3-3.4-8c-0.5,0.2-0.8,0.4-1.3,0.6c-0.6-1.5-1.2-3-1.9-4.5c1.3-0.6,2.7-1.1,4-1.7c1.3-0.6,2.4-0.7,3.2-0.4
			c0.8,0.3,1.5,1.1,2.1,2.3C151,156,151.3,156.5,151.7,157.4z M149.8,158.2c-0.3-0.6-0.6-0.9-1-1c-0.4-0.1-0.9,0-1.5,0.3
			c-0.4,0.2-0.7,0.3-1.1,0.5c0.6,1.3,0.9,2,1.4,3.2c0.5-0.2,0.7-0.3,1.1-0.5C150,160.1,150.3,159.3,149.8,158.2z"/>
	</g>
</g>
</svg>
