<?xml version="1.0" encoding="utf-8"?>
<!-- Generator: Adobe Illustrator 18.1.1, SVG Export Plug-In . SVG Version: 6.00 Build 0)  -->
<svg version="1.1" id="Слой_1" xmlns="http://www.w3.org/2000/svg" xmlns:xlink="http://www.w3.org/1999/xlink" x="0px" y="0px"
	 viewBox="0 0 43 13" enable-background="new 0 0 43 13" xml:space="preserve">
<path fill="#F4EAD1" d="M43,6.8c-0.3-3-4.3-3.3-4.9-2c1.4-0.4,3.5,0.9,3,2.4c-0.5,1.7-2.5,2.2-5,0.7c-2.9-1.7-3.3-4.3-6.5-6.2
	C26.2,0,23.6,1,23.6,1c-1.2,0.4-1.7,1-2.1,1c-0.4-0.1-0.9-0.7-2.1-1c0,0-2.6-1.1-5.9,0.7S9.8,6.2,6.9,7.9c-2.5,1.5-4.5,0.9-5-0.7
	c-0.4-1.6,1.6-2.8,3-2.4c-0.6-1.2-4.6-1-4.9,2c-0.4,3.9,4,7.9,14.1,3.6c2.4-1,3.9-1.8,6.3-3.6c0.3-0.2,0.6-0.4,1-0.4
	c0.1,0,0.1,0,0.1,0s0.1,0,0.1,0c0.4,0,0.8,0.2,1,0.4c2.4,1.9,3.9,2.6,6.3,3.6C39,14.7,43.4,10.7,43,6.8z"/>
</svg>
